{"title":"Tank 432 2016 Movies HDRip XviD AAC New Source with Sample ☻rDX☻","uid":15653631,"size":740203314,"categoryP":"video","categoryS":"movies","magnet":"?xt=urn:btih:3c331b4fab7240db0f87b24b2ad769ccbb432192&amp;dn=Tank+432+2016+Movies+HDRip+XviD+AAC+New+Source+with+Sample+%E2%98%BBrDX%E2%98%BB&amp;tr=udp%3A%2F%2Ftracker.leechers-paradise.org%3A6969&amp;tr=udp%3A%2F%2Fzer0day.ch%3A1337&amp;tr=udp%3A%2F%2Fopen.demonii.com%3A1337&amp;tr=udp%3A%2F%2Ftracker.coppersurfer.tk%3A6969&amp;tr=udp%3A%2F%2Fexodus.desync.com%3A6969","seeders":2,"leechers":4,"uploader":"basicssom","files":2,"time":1472120130,"description":"----------------------------------------------------------------\r\nTank 432 2016 English Movies HDRip XviD AAC New Source with Sample ☻rDX☻\r\n\r\nSCREEN SHOTS &amp; POSTER:\r\n  \nhttp://postimage.co.nr/2016/8/dinner/index.htm  \nhttp://postimage.co.nr/2016/8/dinner/1.html  \nhttp://postimage.co.nr/2016/8/dinner/2.html  \nhttp://postimage.co.nr/2016/8/dinner/3.html  \nhttp://postimage.co.nr/2016/8/dinner/4.html  \nhttp://postimage.co.nr/2016/8/dinner/5.html  \nhttp://postimage.co.nr/2016/8/dinner/6.html  \nhttp://postimage.co.nr/2016/8/dinner/7.html  \nhttp://postimage.co.nr/2016/8/dinner/8.html  \nhttp://postimage.co.nr/2016/8/dinner/9.html  \nhttp://postimage.co.nr/2016/8/dinner/10.html\r\n\r\nFormat                                   : Matroska\r\nFormat version                           : Version 4 / Version 2\r\nFile size                                : 698 MiB\r\nDuration                                 : 1 h 27 min\r\nOverall bit rate mode                    : Constant\r\nOverall bit rate                         : 1 115 kb/s\r\nMovie name                               : Tank 432 2016 English Movies HDRip XviD AAC New Source ☻rDX☻\r\n\r\nVideo\r\nID                                       : 2\r\nFormat                                   : AVC\r\nFormat/Info                              : Advanced Video Codec\r\nFormat profile                           :   \r\nFormat settings, CABAC                   : Yes\r\nFormat settings, ReFrames                : 2 frames\r\nFormat settings, GOP                     : M=1, N=12\r\nCodec ID                                 : V_MPEG4/ISO/AVC\r\nDuration                                 : 1 h 27 min\r\nBit rate mode                            : Constant\r\nBit rate                                 : 732 kb/s\r\nWidth                                    : 720 pixels\r\nHeight                                   : 304 pixels\r\nDisplay aspect ratio                     : 2.35:1\r\nFrame rate mode                          : Constant\r\nFrame rate                               : 24.000 FPS\r\nColor space                              : YUV\r\nChroma subsampling                       : 4:2:0\r\nBit depth                                : 8 bits\r\nScan type                                : Progressive\r\nBits/(Pixel*Frame)                       : 0.139\r\nStream size                              : 444 MiB (64%)\r\nTitle                                    : ☻rDX☻\r\nDefault                                  : Yes\r\nForced                                   : No\r\n\r\nAudio\r\nID                                       : 1\r\nFormat                                   : AC-3\r\nFormat/Info                              : Audio Coding 3\r\nMode extension                           : CM (complete main)\r\nFormat settings, Endianness              : Big\r\nCodec ID                                 : A_AC3\r\nDuration                                 : 1 h 27 min\r\nBit rate mode                            : Constant\r\nBit rate                                 : 384 kb/s\r\nChannel(s)                               : 6 channels\r\nChannel positions                        : Front: L C R, Side: L R, LFE\r\nSampling rate                            : 48.0 kHz\r\nFrame rate                               : 31.250 FPS (1536 spf)\r\nCompression mode                         : Lossy\r\nStream size                              : 240 MiB (34%)\r\nTitle                                    : ☻rDX☻\r\nDefault                                  : Yes\r\nForced                                   : No\r\n\r\nIMDB \nhttp://www.imdb.com/title/tt4475992/","torrent":{"xt":"urn:btih:3c331b4fab7240db0f87b24b2ad769ccbb432192","amp;dn":"Tank+432+2016+Movies+HDRip+XviD+AAC+New+Source+with+Sample+%E2%98%BBrDX%E2%98%BB","amp;tr":["udp%3A%2F%2Ftracker.leechers-paradise.org%3A6969","udp%3A%2F%2Fzer0day.ch%3A1337","udp%3A%2F%2Fopen.demonii.com%3A1337","udp%3A%2F%2Ftracker.coppersurfer.tk%3A6969","udp%3A%2F%2Fexodus.desync.com%3A6969"],"infoHash":"3c331b4fab7240db0f87b24b2ad769ccbb432192","infoHashBuffer":{"type":"Buffer","data":[60,51,27,79,171,114,64,219,15,135,178,75,42,215,105,204,187,67,33,146]},"announce":[],"urlList":[]}}